PathFileType	3	(X/Y/Z)	E:\ViconData\BIOM9541 2025\Week 7\Wed1100\Hanif deep squat 7-5 Squat 01.trc
DataRate	CameraRate	NumFrames	NumMarkers	Units	OrigDataRate	OrigDataStartFrame	OrigNumFrames
200.0	200.0	16	19	mm	200.0	231	1840	
Frame#	Time	C7			CLAV			RBAK			LASI			RASI			LPSI			RPSI			LTHI			LKNE			LTIB			LANK			LHEE			LTOE			RTHI			RKNE			RTIB			RANK			RHEE			RTOE			
		X1	Y1	Z1	X2	Y2	Z2	X3	Y3	Z3	X4	Y4	Z4	X5	Y5	Z5	X6	Y6	Z6	X7	Y7	Z7	X8	Y8	Z8	X9	Y9	Z9	X10	Y10	Z10	X11	Y11	Z11	X12	Y12	Z12	X13	Y13	Z13	X14	Y14	Z14	X15	Y15	Z15	X16	Y16	Z16	X17	Y17	Z17	X18	Y18	Z18	X19	Y19	Z19	
231	1.15	339.30972	928.50983	-1228.5139	190.4686	847.01764	-1220.0457	351.86191	853.16968	-1381.775	309.22571	497.5177	-1104.3661	293.87805	516.362	-1364.6819	472.85059	566.92676	-1192.3516	471.36816	564.99823	-1265.8334	208.82837	433.46115	-949.56232	104.32447	357.72491	-902.18311	206.2287	183.42569	-940.0683	297.04755	64.835953	-1005.7552	317.63422	53.907375	-1065.8611	160.15024	39.402138	-968.57074	333.33209	485.35919	-1443.3131	93.912773	334.7674	-1539.2695	127.99056	260.01004	-1531.7115	290.09561	68.677933	-1438.2217	320.12326	54.081722	-1366.6309	162.70651	40.408875	-1461.5674
232	1.155	338.97546	924.97992	-1228.4005	190.29219	843.35724	-1220.1149	351.69684	849.61896	-1381.6738	309.09494	494.61731	-1104.0925	293.79184	513.2464	-1364.5369	472.73651	563.58533	-1192.2448	471.263	561.52954	-1265.5405	208.86809	432.28781	-949.4931	104.01084	357.44418	-901.75012	206.03511	183.25572	-939.9325	297.02234	64.814842	-1005.8117	317.50925	53.936218	-1065.9149	160.09096	39.391472	-968.70392	333.73184	483.18848	-1442.8932	93.698631	334.35953	-1539.6504	127.81812	259.67932	-1532.0183	290.08878	68.649879	-1438.1976	320.07092	54.127953	-1366.605	162.71742	40.34856	-1461.6077
233	1.16	338.6145	921.57343	-1228.2812	189.92995	839.97632	-1220.0945	351.86905	846.22729	-1381.585	308.8537	491.66092	-1103.8398	293.65225	510.22	-1364.2401	472.59689	560.26654	-1191.9133	471.21658	558.20465	-1265.207	208.88988	431.18799	-949.38147	103.73168	357.09546	-901.33929	205.86378	183.07971	-939.83911	296.95413	64.796684	-1005.8546	316.70441	53.631542	-1065.7274	159.99428	39.38134	-968.62561	334.12271	481.11478	-1442.4589	93.50206	334.05087	-1540.1086	127.58176	259.51968	-1532.2963	290.04868	68.689178	-1438.1732	319.88431	54.297729	-1366.2544	162.70195	40.385223	-1461.6432
234	1.165	338.2822	918.25641	-1228.1442	188.98804	836.79999	-1219.269	351.64957	842.91455	-1381.4246	308.83554	488.73779	-1103.8885	293.53662	507.22623	-1364.0842	472.39044	556.97919	-1191.3427	471.02435	554.80798	-1264.7822	208.89783	429.97937	-949.34656	103.41602	356.71741	-901.01514	205.62061	182.841	-939.71948	296.29987	64.781494	-1005.587	316.61188	53.806515	-1065.8107	159.94508	39.393017	-968.53754	334.50104	479.10233	-1442.0955	93.28862	333.85114	-1540.5671	127.35404	259.37112	-1532.5791	289.99329	68.79187	-1438.142	319.71408	54.545193	-1365.7334	162.68721	40.486736	-1461.6603
235	1.17	337.94818	914.95062	-1227.9943	189.2775	833.25452	-1219.7992	351.09604	839.46405	-1381.1051	308.59427	486.09711	-1103.5792	293.43076	504.27158	-1363.7888	472.19943	553.66864	-1190.8319	470.9129	551.29041	-1264.5028	208.86055	428.89191	-949.15485	103.09267	356.32205	-900.64264	205.34798	182.72304	-939.50153	296.19312	64.294121	-1005.8381	316.5188	53.948174	-1065.921	159.89951	39.402245	-968.61835	334.88263	477.12878	-1441.6487	93.127396	333.62317	-1540.9773	127.19831	259.17834	-1532.8282	289.97769	68.858833	-1438.1238	319.62677	54.606262	-1365.621	162.6617	40.542091	-1461.6864
236	1.175	337.64005	911.63824	-1227.9231	188.93336	829.91602	-1219.6725	350.87744	836.19415	-1380.974	310.34912	481.73511	-1103.7517	293.33725	501.32407	-1363.6765	472.04959	550.38538	-1190.7488	470.87454	548.0639	-1264.2943	208.85239	427.91586	-948.9978	102.75042	356.05545	-900.22064	205.10051	182.57088	-939.34869	296.12177	64.200798	-1005.8679	316.36514	53.883892	-1065.9486	159.83359	39.29781	-968.51294	335.34381	474.97708	-1441.1337	92.973778	333.33871	-1541.3812	127.02848	258.93384	-1533.0623	289.95889	68.807655	-1438.1006	319.56787	54.649998	-1365.5969	162.6526	40.459988	-1461.6676
237	1.18	337.29031	908.39551	-1227.8044	188.54793	826.6684	-1219.7733	351.01541	832.95502	-1380.9882	310.00888	479.18506	-1103.5564	293.22894	498.38571	-1363.5562	471.90283	547.10046	-1190.7283	470.88486	545.11603	-1264.0396	208.75957	426.83508	-948.92548	102.40606	355.74817	-899.84766	204.83131	182.40402	-939.19714	296.05295	64.145981	-1005.9767	316.27908	53.817375	-1066.0444	159.7278	39.197811	-968.48102	335.73175	472.88766	-1440.7119	92.820007	332.90829	-1541.6827	126.89225	258.68509	-1533.321	289.94177	68.733269	-1438.0831	319.57135	54.60759	-1365.6788	162.67384	40.353981	-1461.646
238	1.185	336.97388	905.2489	-1227.7325	188.31807	823.41785	-1219.5837	350.47385	829.68671	-1380.7479	308.24399	477.41095	-1103.4436	293.0835	495.56955	-1363.4668	471.76337	543.87103	-1190.6309	470.73666	542.03381	-1263.7339	208.71185	425.85382	-948.90094	102.12218	355.43091	-899.46265	204.61653	182.21294	-939.12976	295.95621	64.11512	-1006.0428	316.11868	53.799789	-1066.1119	159.66429	39.117851	-968.45465	336.15625	470.79993	-1440.2577	92.668686	332.64734	-1542.0354	126.73914	258.45416	-1533.563	289.91586	68.706764	-1438.056	319.53235	54.629692	-1365.6798	162.66077	40.29586	-1461.6439
239	1.19	336.6554	902.12817	-1227.6377	187.74121	820.39624	-1219.8954	350.23029	826.58356	-1380.5996	309.47223	473.89792	-1103.5718	293.05981	492.67621	-1363.3687	471.49542	540.83936	-1190.2079	470.58426	538.79724	-1263.4828	208.63463	424.84723	-948.79694	101.86082	355.07932	-899.12689	204.44272	182.01126	-939.0672	295.86328	64.152809	-1006.0954	315.99368	53.873199	-1066.1925	159.64966	39.119221	-968.56915	336.55057	468.8392	-1439.9672	92.52401	332.44888	-1542.3702	126.55954	258.32339	-1533.7856	289.8627	68.786278	-1438.0112	319.47137	54.761337	-1365.5438	162.65111	40.315369	-1461.6306
240	1.195	336.28967	898.97723	-1227.5182	187.05576	817.33649	-1219.1206	349.9964	823.49133	-1380.5107	307.68015	472.48999	-1103.4785	292.92694	489.90866	-1363.3043	471.24149	537.8147	-1189.7522	470.3804	535.63971	-1263.1694	208.58553	423.86713	-948.67975	101.56195	354.72296	-898.81464	204.2543	181.85066	-938.99066	295.77325	64.237976	-1006.1235	315.83789	53.938023	-1066.2219	159.57187	39.140751	-968.61682	336.96283	466.92633	-1439.6859	92.37384	332.23425	-1542.6467	126.37307	258.16742	-1533.9491	289.82455	68.830864	-1437.959	319.35828	54.880085	-1365.3784	162.6124	40.365456	-1461.64
241	1.2	335.97174	896.03552	-1227.4237	186.18756	814.54169	-1219.1892	349.74353	820.36163	-1380.3906	306.9863	470.23904	-1103.4896	292.83655	487.18903	-1363.3615	470.96155	534.86621	-1189.446	470.21555	532.67407	-1262.8221	208.49174	422.87915	-948.55774	101.25497	354.44107	-898.47278	204.04614	181.67726	-938.88885	295.71161	64.275101	-1006.1851	315.6983	53.935188	-1066.257	159.52606	39.096596	-968.70154	337.4324	464.90503	-1439.3212	92.258873	332.00723	-1542.9349	126.18745	257.9949	-1534.0933	289.76633	68.804146	-1437.8925	319.26147	54.927212	-1365.2285	162.5885	40.335712	-1461.6465
242	1.205	335.67795	892.98804	-1227.4022	186.8703	810.93878	-1219.8153	349.49689	817.25323	-1380.3051	306.96899	468.31924	-1103.8153	292.75735	484.39893	-1363.2996	470.71616	531.80804	-1189.4528	470.04544	529.6308	-1262.5266	208.42302	422.02689	-948.46765	100.94964	354.18231	-898.11853	203.82843	181.5621	-938.79443	295.66586	64.245773	-1006.2761	315.58917	53.877613	-1066.2921	159.44682	39.015842	-968.73059	337.92923	462.79776	-1438.86	92.114769	331.68979	-1543.1884	126.04965	257.7738	-1534.2299	289.7467	68.726013	-1437.8082	319.24728	54.918682	-1365.2717	162.58209	40.222118	-1461.5886
243	1.21	335.3548	890.02527	-1227.3563	186.37991	808.09656	-1219.7231	349.63876	814.32941	-1380.3555	306.57944	466.11584	-1104	292.64062	481.68845	-1363.264	470.48276	528.89832	-1189.5186	469.87051	526.72339	-1262.2743	208.34177	421.10309	-948.35748	100.69385	353.98013	-897.77985	203.61093	181.47533	-938.66077	295.59985	64.216751	-1006.3798	315.46231	53.855217	-1066.3521	159.39217	38.978886	-968.81854	338.40915	460.76218	-1438.4449	92.026741	331.37244	-1543.4696	125.91384	257.58493	-1534.389	289.70917	68.688881	-1437.769	319.33801	54.781231	-1365.693	162.5528	40.17889	-1461.5736
244	1.215	335.01508	887.04736	-1227.2533	186.10274	805.11078	-1219.624	349.05807	811.36169	-1380.1403	304.73041	464.20731	-1106.1631	292.5459	479.08206	-1363.3324	470.14294	525.93011	-1189.0227	469.67981	523.82184	-1261.9669	208.29579	420.2583	-948.29846	100.46532	353.70306	-897.48309	203.44318	181.35939	-938.55109	295.52911	64.222733	-1006.4262	315.30383	53.803848	-1066.3771	159.31325	38.97039	-968.85297	338.83228	458.90747	-1438.0331	91.937607	331.22974	-1543.7664	125.80992	257.4245	-1534.5747	289.67267	68.708023	-1437.7223	319.27112	54.879215	-1365.4852	162.53452	40.166145	-1461.5146
245	1.22	334.61053	884.14178	-1227.0563	185.7849	802.34021	-1219.4875	348.81018	808.47955	-1379.9982	305.71768	461.89404	-1104.424	292.39627	476.47577	-1363.2343	469.87259	523.1723	-1188.8917	469.48169	520.97986	-1261.6663	208.28413	419.43994	-948.09723	100.18712	353.42145	-897.1391	203.25578	181.18517	-938.48029	295.41092	64.20517	-1006.4242	315.22495	53.86998	-1066.4594	159.27509	38.943768	-968.82416	339.20392	457.15967	-1437.7933	91.909546	331.05045	-1544.1117	125.70192	257.34616	-1534.7839	289.66855	68.721634	-1437.6696	319.17346	55.00383	-1365.1952	162.5146	40.196346	-1461.5027
246	1.225	334.24561	881.29651	-1226.9158	185.50578	799.34534	-1219.4854	348.54446	805.63495	-1379.856	305.38681	458.9426	-1104.4521	292.29324	473.95255	-1363.2965	469.54111	520.33929	-1188.4078	469.25726	518.07288	-1261.3992	208.23076	418.53894	-947.8963	99.96505	353.15652	-896.78827	203.08963	181.02444	-938.41803	295.31635	64.201607	-1006.4532	315.17203	53.987804	-1066.5635	159.19801	38.957413	-968.81812	339.71204	455.16428	-1437.2416	91.874153	330.80612	-1544.5013	125.66371	257.23383	-1535.0345	289.65842	68.763023	-1437.6483	319.28232	54.842506	-1365.6687	162.53171	40.22311	-1461.48
